<svg width="172" height="60" viewBox="0 0 172 60" fill="none" xmlns="http://www.w3.org/2000/svg">
<path d="M13.92 4.92C11.4 5 9.46 5.96 8.1 7.8C6.78 9.64 6.12 12.82 6.12 17.34C6.12 18.82 6.26 19.86 6.54 20.46C6.82 21.02 6.96 21.34 6.96 21.42C4.8 21.42 3.18 20.98 2.1 20.1C1.06 19.18 0.54 17.68 0.54 15.6C0.54 12.76 1.24 10.18 2.64 7.86C4.04 5.5 6.26 3.6 9.3 2.16C12.38 0.719997 16.28 -3.57628e-06 21 -3.57628e-06C21.96 -3.57628e-06 23.24 0.0999963 24.84 0.299996C27.72 0.579997 29.76 0.719998 30.96 0.719998C33.08 0.719998 34.88 0.479997 36.36 -3.57628e-06C36.24 0.359997 36.02 1.16 35.7 2.4C35.38 3.6 34.8 4.64 33.96 5.52C33.16 6.36 32.06 6.92 30.66 7.2C28.3 7.2 25.5 6.82 22.26 6.06L19.74 18H28.5L27.54 22.44H18.78L13.92 45H5.28L13.92 4.92ZM36.2991 45.24C33.3391 45.24 30.9991 44.48 29.2791 42.96C27.5591 41.44 26.6991 39.04 26.6991 35.76C26.6991 33.04 27.2591 30.02 28.3791 26.7C29.4991 23.38 31.2991 20.52 33.7791 18.12C36.2591 15.68 39.3791 14.46 43.1391 14.46C48.2591 14.46 50.8191 17.66 50.8191 24.06V24.12C50.9391 24.16 51.1591 24.18 51.4791 24.18C52.7991 24.18 54.3191 23.84 56.0391 23.16C57.7591 22.44 59.3191 21.58 60.7191 20.58L61.2591 22.2C60.0991 23.44 58.5791 24.5 56.6991 25.38C54.8591 26.22 52.8391 26.82 50.6391 27.18C50.3191 30.82 49.4991 34 48.1791 36.72C46.8591 39.44 45.1591 41.54 43.0791 43.02C40.9991 44.5 38.7391 45.24 36.2991 45.24ZM38.6991 39.84C39.6591 39.84 40.6191 39.3 41.5791 38.22C42.5391 37.1 43.3791 35.6 44.0991 33.72C44.8191 31.8 45.3391 29.68 45.6591 27.36C44.5791 27.12 44.0391 26.28 44.0391 24.84C44.0391 23.2 44.6591 22.12 45.8991 21.6C45.8191 20.28 45.6191 19.38 45.2991 18.9C44.9791 18.38 44.4191 18.12 43.6191 18.12C42.2991 18.12 41.0191 19.08 39.7791 21C38.5391 22.92 37.5391 25.22 36.7791 27.9C36.0191 30.58 35.6391 32.94 35.6391 34.98C35.6391 36.9 35.8591 38.2 36.2991 38.88C36.7391 39.52 37.5391 39.84 38.6991 39.84ZM62.6663 45.24C59.7063 45.24 57.3663 44.48 55.6463 42.96C53.9263 41.44 53.0662 39.04 53.0662 35.76C53.0662 33.04 53.6262 30.02 54.7463 26.7C55.8663 23.38 57.6663 20.52 60.1463 18.12C62.6263 15.68 65.7463 14.46 69.5063 14.46C74.6263 14.46 77.1863 17.66 77.1863 24.06V24.12C77.3063 24.16 77.5263 24.18 77.8463 24.18C79.1663 24.18 80.6863 23.84 82.4063 23.16C84.1263 22.44 85.6863 21.58 87.0863 20.58L87.6263 22.2C86.4663 23.44 84.9463 24.5 83.0663 25.38C81.2263 26.22 79.2063 26.82 77.0063 27.18C76.6863 30.82 75.8663 34 74.5463 36.72C73.2263 39.44 71.5263 41.54 69.4463 43.02C67.3663 44.5 65.1063 45.24 62.6663 45.24ZM65.0663 39.84C66.0263 39.84 66.9863 39.3 67.9463 38.22C68.9063 37.1 69.7463 35.6 70.4663 33.72C71.1863 31.8 71.7063 29.68 72.0263 27.36C70.9463 27.12 70.4063 26.28 70.4063 24.84C70.4063 23.2 71.0263 22.12 72.2663 21.6C72.1863 20.28 71.9863 19.38 71.6663 18.9C71.3463 18.38 70.7863 18.12 69.9863 18.12C68.6663 18.12 67.3863 19.08 66.1463 21C64.9063 22.92 63.9063 25.22 63.1463 27.9C62.3863 30.58 62.0063 32.94 62.0063 34.98C62.0063 36.9 62.2263 38.2 62.6663 38.88C63.1063 39.52 63.9063 39.84 65.0663 39.84ZM87.4734 45.36C85.1934 45.36 83.2934 44.58 81.7734 43.02C80.2534 41.46 79.4934 39.02 79.4934 35.7C79.4934 32.74 80.0734 29.64 81.2334 26.4C82.4334 23.12 84.1934 20.36 86.5134 18.12C88.8734 15.84 91.6734 14.7 94.9134 14.7C96.5534 14.7 97.7734 14.98 98.5734 15.54C99.3734 16.1 99.7734 16.84 99.7734 17.76V18L102.713 4.2L111.593 3L104.693 35.4C104.533 36 104.453 36.64 104.453 37.32C104.453 38.12 104.633 38.7 104.993 39.06C105.393 39.38 106.033 39.54 106.913 39.54C108.033 39.54 108.993 39.06 109.793 38.1C110.633 37.14 111.293 35.86 111.773 34.26H114.293C111.853 41.42 107.833 45 102.233 45C100.593 45 99.2534 44.56 98.2134 43.68C97.2134 42.8 96.5934 41.52 96.3534 39.84C95.3134 41.44 94.0534 42.76 92.5734 43.8C91.1334 44.84 89.4334 45.36 87.4734 45.36ZM91.3734 39.54C92.3334 39.54 93.2934 39.1 94.2534 38.22C95.2534 37.34 95.9334 36.12 96.2934 34.56V34.26L99.2334 20.52C98.8734 19.12 98.0534 18.42 96.7734 18.42C95.1734 18.42 93.7334 19.36 92.4534 21.24C91.1734 23.08 90.1734 25.32 89.4534 27.96C88.7334 30.56 88.3734 32.86 88.3734 34.86C88.3734 36.86 88.6534 38.14 89.2134 38.7C89.8134 39.26 90.5334 39.54 91.3734 39.54ZM122.417 60C120.497 60 118.897 59.5 117.617 58.5C116.337 57.5 115.697 56.06 115.697 54.18C115.697 51.9 116.617 50.06 118.457 48.66C120.297 47.3 122.637 46.16 125.477 45.24L126.197 42.06C124.157 44.26 121.757 45.36 118.997 45.36C116.717 45.36 114.817 44.58 113.297 43.02C111.777 41.46 111.017 39.02 111.017 35.7C111.017 32.74 111.597 29.64 112.757 26.4C113.957 23.12 115.717 20.36 118.037 18.12C120.397 15.84 123.197 14.7 126.437 14.7C128.077 14.7 129.297 14.98 130.097 15.54C130.897 16.1 131.297 16.84 131.297 17.76V18.12L131.957 15H140.597L134.657 42.84C136.577 42.2 138.117 41.24 139.277 39.96C140.437 38.68 141.417 36.78 142.217 34.26H144.737C143.657 37.82 142.197 40.44 140.357 42.12C138.517 43.76 136.437 44.88 134.117 45.48L133.217 49.8C132.417 53.68 131.037 56.34 129.077 57.78C127.117 59.26 124.897 60 122.417 60ZM122.897 39.54C123.817 39.54 124.757 39.12 125.717 38.28C126.677 37.44 127.337 36.3 127.697 34.86L130.757 20.64C130.757 20.16 130.557 19.68 130.157 19.2C129.757 18.68 129.137 18.42 128.297 18.42C126.697 18.42 125.257 19.36 123.977 21.24C122.697 23.08 121.697 25.32 120.977 27.96C120.257 30.56 119.897 32.86 119.897 34.86C119.897 36.86 120.177 38.14 120.737 38.7C121.337 39.26 122.057 39.54 122.897 39.54ZM121.037 55.32C121.717 55.32 122.377 54.86 123.017 53.94C123.657 53.02 124.157 51.7 124.517 49.98L124.877 48.24C120.957 49.68 118.997 51.38 118.997 53.34C118.997 53.86 119.177 54.32 119.537 54.72C119.897 55.12 120.397 55.32 121.037 55.32ZM150.967 45.24C148.007 45.24 145.667 44.48 143.947 42.96C142.227 41.44 141.367 39.04 141.367 35.76C141.367 33 141.907 29.98 142.987 26.7C144.067 23.38 145.827 20.52 148.267 18.12C150.707 15.68 153.827 14.46 157.627 14.46C162.347 14.46 164.887 17.16 165.247 22.56C166.127 22.36 166.907 21.88 167.587 21.12C168.267 20.32 168.907 19.42 169.507 18.42H171.427C170.347 20.58 169.387 22.28 168.547 23.52C167.707 24.72 166.607 25.7 165.247 26.46C165.007 30.22 164.227 33.52 162.907 36.36C161.627 39.2 159.947 41.4 157.867 42.96C155.787 44.48 153.487 45.24 150.967 45.24ZM153.367 39.84C154.847 39.84 156.227 38.64 157.507 36.24C158.787 33.84 159.667 30.88 160.147 27.36C159.187 27 158.707 26.1 158.707 24.66C158.707 23.1 159.267 22.06 160.387 21.54C160.307 20.26 160.087 19.38 159.727 18.9C159.407 18.38 158.867 18.12 158.107 18.12C156.787 18.12 155.527 19.08 154.327 21C153.127 22.88 152.147 25.18 151.387 27.9C150.667 30.58 150.307 32.94 150.307 34.98C150.307 36.9 150.527 38.2 150.967 38.88C151.407 39.52 152.207 39.84 153.367 39.84Z" fill="white"/>
</svg>
